<?xml version="1.0" standalone="no"?>
<!DOCTYPE svg PUBLIC "-//W3C//DTD SVG 20010904//EN"
 "http://www.w3.org/TR/2001/REC-SVG-20010904/DTD/svg10.dtd">
<svg version="1.0" xmlns="http://www.w3.org/2000/svg"
 width="700.000000pt" height="700.000000pt" viewBox="0 0 700.000000 700.000000"
 preserveAspectRatio="xMidYMid meet">
<metadata>
Created by potrace 1.14, written by Peter Selinger 2001-2017
</metadata>
<g transform="translate(0.000000,700.000000) scale(0.100000,-0.100000)"
fill="#000000" stroke="none">
<path d="M3260 6679 c-962 -99 -1850 -639 -2388 -1453 -378 -571 -559 -1209
-539 -1896 15 -486 117 -898 332 -1335 553 -1125 1675 -1825 2925 -1827 602 0
1160 152 1670 455 248 148 458 315 675 538 517 532 817 1171 907 1934 16 140
16 527 -1 670 -74 639 -308 1212 -692 1697 -104 130 -334 365 -462 471 -510
423 -1128 683 -1776 747 -121 12 -529 11 -651 -1z m555 -140 c257 -27 525 -91
765 -182 154 -59 436 -198 433 -215 -2 -6 -176 -311 -388 -678 -212 -367 -385
-669 -385 -670 0 -2 19 -4 43 -4 41 0 47 -4 154 -112 l112 -113 2 -205 c2
-256 -1 -266 -128 -372 -98 -82 -97 -75 -50 -231 15 -48 30 -124 33 -167 l7
-80 1060 0 1060 0 -7 -137 c-34 -701 -308 -1356 -791 -1896 -159 -178 -403
-382 -621 -518 l-98 -62 -15 23 c-8 12 -178 305 -377 649 l-362 626 -762 0
-762 0 -370 -640 c-203 -352 -373 -644 -377 -648 -5 -5 -39 10 -77 33 -507
309 -934 794 -1178 1337 -162 361 -266 812 -266 1155 l0 78 1060 0 1060 0 0
38 c0 64 20 163 51 255 16 49 29 96 29 105 -1 9 -24 35 -52 57 -152 120 -157
133 -158 395 l0 205 112 112 c104 104 116 113 150 113 21 0 38 2 38 4 0 2
-173 304 -385 671 -212 367 -387 673 -388 679 -3 14 269 150 406 204 445 174
947 242 1422 191z"/>
<path d="M2682 4548 c-8 -8 -12 -65 -12 -192 0 -166 1 -179 16 -158 l15 22
798 0 c854 0 814 2 824 -50 2 -14 5 60 6 163 0 113 -3 196 -9 208 -10 18 -23
19 -174 19 -189 0 -196 -3 -196 -83 l0 -47 -115 0 -115 0 0 53 c0 29 -5 58
-12 65 -17 17 -399 17 -416 0 -7 -7 -12 -36 -12 -65 l0 -53 -115 0 -115 0 0
43 c0 23 -7 53 -16 65 -15 21 -21 22 -178 22 -113 0 -166 -4 -174 -12z"/>
<path d="M2671 4160 c-1 -9 44 -53 99 -99 l100 -82 0 -420 0 -420 -37 -63
c-25 -41 -47 -67 -65 -74 l-28 -10 0 -126 0 -126 -85 0 c-120 0 -125 -6 -125
-153 0 -86 4 -118 16 -135 l15 -22 938 0 c861 0 940 1 952 17 10 12 14 50 14
140 0 153 0 153 -122 153 l-83 0 0 119 c0 95 -3 123 -16 135 -8 9 -21 16 -28
16 -6 0 -29 29 -49 63 l-37 64 0 421 0 422 93 76 c50 42 94 79 97 81 2 2 -8
-1 -23 -6 -19 -8 -281 -11 -806 -11 -807 0 -800 0 -814 40 -5 13 -6 13 -6 0z
m1437 -122 c7 -7 12 -21 12 -33 0 -12 -5 -26 -12 -33 -17 -17 -1199 -17 -1216
0 -7 7 -12 21 -12 33 0 12 5 26 12 33 17 17 1199 17 1216 0z m0 -880 c7 -7 12
-21 12 -33 0 -12 -5 -26 -12 -33 -17 -17 -1199 -17 -1216 0 -7 7 -12 21 -12
33 0 12 5 26 12 33 17 17 1199 17 1216 0z m60 -134 c26 -18 28 -41 5 -66 -15
-17 -49 -18 -674 -18 -584 0 -659 2 -673 16 -21 20 -20 43 1 66 15 17 49 18
667 18 574 0 654 -2 674 -16z m72 -274 c24 -24 24 -29 4 -58 l-15 -22 -726 0
c-662 0 -728 1 -745 17 -24 22 -23 49 4 67 20 14 107 16 740 16 705 0 718 0
738 -20z"/>
</g>
</svg>
