<?xml version="1.0" standalone="no"?>
<!DOCTYPE svg PUBLIC "-//W3C//DTD SVG 20010904//EN"
 "http://www.w3.org/TR/2001/REC-SVG-20010904/DTD/svg10.dtd">
<svg version="1.0" xmlns="http://www.w3.org/2000/svg"
 width="1024.000000pt" height="1024.000000pt" viewBox="0 0 1024.000000 1024.000000"
 preserveAspectRatio="xMidYMid meet">
<metadata>
Created by potrace 1.11, written by Peter Selinger 2001-2013
</metadata>
<g transform="translate(0.000000,1024.000000) scale(0.100000,-0.100000)"
fill="#000000" stroke="none">
<path d="M4865 9639 c-563 -49 -1122 -202 -1629 -447 -272 -132 -554 -305
-814 -501 -458 -345 -878 -822 -1172 -1331 -775 -1342 -838 -2965 -171 -4356
440 -916 1192 -1678 2106 -2132 511 -254 997 -397 1590 -468 211 -26 746 -26
960 0 541 63 1041 204 1505 424 385 182 789 451 1117 743 764 682 1302 1659
1472 2677 50 297 56 379 56 777 -1 425 -11 546 -81 895 -240 1214 -967 2293
-2004 2975 -647 425 -1388 679 -2175 745 -141 12 -617 11 -760 -1z m765 -73
c396 -50 765 -144 1135 -289 147 -57 564 -263 571 -281 3 -7 -250 -453 -561
-992 -311 -538 -565 -982 -565 -986 0 -5 26 -8 58 -8 l57 0 167 -167 167 -168
2 -290 c2 -387 -1 -394 -199 -560 -129 -108 -128 -108 -78 -268 44 -139 57
-206 65 -327 l6 -95 1553 -3 c1231 -2 1552 -5 1552 -15 -1 -78 -24 -391 -36
-492 -143 -1191 -763 -2272 -1724 -3005 -111 -84 -326 -229 -422 -284 l-47
-27 -43 74 c-24 40 -270 468 -548 950 l-505 876 -1115 0 -1115 0 -505 -876
c-278 -482 -524 -910 -548 -950 l-43 -73 -31 16 c-53 27 -217 134 -338 220
-512 362 -964 863 -1281 1419 -279 489 -471 1065 -543 1630 -18 142 -36 373
-36 467 l0 68 1553 2 1552 3 6 95 c8 123 33 243 74 355 56 150 59 133 -37 212
-129 106 -184 166 -210 231 -21 54 -23 73 -26 346 l-3 289 173 174 173 173 47
0 c27 0 48 3 48 8 0 4 -255 448 -566 987 -311 539 -566 984 -567 988 -3 13
302 170 472 242 292 125 647 232 961 289 114 20 285 43 465 60 104 10 717 -3
835 -18z"/>
<path d="M3930 6650 c-19 -19 -20 -33 -20 -270 l0 -250 20 20 c20 20 33 20
1188 20 642 0 1172 -4 1178 -8 6 -4 16 -16 22 -27 9 -15 11 40 12 236 0 254 0
256 -23 277 -22 21 -31 22 -249 22 -277 0 -270 3 -276 -114 l-4 -76 -169 0
-169 0 0 73 c0 64 -3 76 -23 95 -23 22 -30 22 -300 22 -332 0 -317 5 -317
-115 l0 -75 -175 0 -175 0 0 75 c0 118 8 115 -270 115 -217 0 -231 -1 -250
-20z"/>
<path d="M3920 6057 c0 -1 63 -54 139 -117 l140 -115 0 -618 1 -619 -56 -94
c-36 -60 -63 -94 -73 -94 -10 0 -28 -12 -42 -26 -23 -25 -24 -32 -27 -195 l-3
-169 -97 0 c-111 0 -167 -13 -182 -40 -6 -10 -10 -95 -10 -194 0 -201 3 -210
82 -221 24 -3 639 -5 1366 -3 l1324 3 24 28 c23 27 24 33 24 197 0 164 -1 170
-24 197 -24 27 -27 28 -150 32 l-126 3 0 173 0 174 -26 20 c-15 12 -33 21 -40
21 -7 0 -38 42 -69 93 l-55 93 0 619 0 620 121 99 c66 55 122 102 123 105 2 3
-518 5 -1157 3 -1028 -2 -1163 0 -1184 13 -12 9 -23 14 -23 12z m2085 -152
c30 -29 32 -64 6 -96 l-19 -24 -865 -3 c-863 -2 -864 -2 -890 19 -37 28 -37
80 -1 108 27 21 32 21 886 21 l859 0 24 -25z m5 -1285 c11 -11 20 -33 20 -50
0 -17 -9 -39 -20 -50 -20 -20 -33 -20 -890 -20 -857 0 -870 0 -890 20 -11 11
-20 33 -20 50 0 17 9 39 20 50 20 20 33 20 890 20 857 0 870 0 890 -20z m69
-181 c55 -19 68 -73 26 -114 l-24 -25 -959 0 c-955 0 -959 0 -986 21 -44 34
-27 112 27 122 12 2 441 5 953 6 657 1 940 -2 963 -10z m126 -414 c30 -29 32
-64 5 -93 l-21 -22 -1069 0 c-1057 0 -1070 0 -1090 20 -29 29 -26 74 6 99 27
21 29 21 1086 21 l1059 0 24 -25z"/>
</g>
</svg>
